<svg width="270" height="56" viewBox="0 0 270 56" fill="none" xmlns="http://www.w3.org/2000/svg">
<path d="M107.298 34.6037C104.861 32.5124 101.978 31.4656 98.6484 31.4656C95.3184 31.4656 92.4337 32.5124 89.9991 34.6037C87.5621 36.695 86.3448 39.5924 86.3448 43.2961C86.3448 46.9997 87.5621 49.8948 89.9991 51.9885C92.4361 54.0822 95.3184 55.1266 98.6484 55.1266C101.978 55.1266 104.861 54.0798 107.298 51.9885C109.735 49.8972 110.952 46.9997 110.952 43.2961C110.952 39.5924 109.735 36.6974 107.298 34.6037ZM103.21 48.0153C101.923 49.2041 100.403 49.7985 98.646 49.7985C96.889 49.7985 95.3692 49.2041 94.0817 48.0153C92.7943 46.8265 92.153 45.2526 92.153 43.2961C92.153 41.3396 92.7967 39.7681 94.0817 38.5769C95.3692 37.3881 96.889 36.7936 98.646 36.7936C100.4 36.7936 101.923 37.3881 103.21 38.5769C104.495 39.7657 105.139 41.3396 105.139 43.2961C105.141 45.2526 104.498 46.8265 103.21 48.0153Z" fill="#FF5400"/>
<path d="M151.87 48.7805C150.946 49.4568 149.76 49.7961 148.305 49.7961C146.548 49.7961 145.111 49.2089 143.993 48.0345C142.872 46.8601 142.313 45.2814 142.313 43.2936C142.313 41.3371 142.882 39.7657 144.017 38.5744C145.152 37.3856 146.582 36.7912 148.308 36.7912C150.912 36.7912 152.802 38.0715 153.983 40.6296L158.661 37.5589C157.874 35.6337 156.579 34.1344 154.779 33.0659C152.978 31.9974 150.837 31.4631 148.354 31.4631C145.053 31.4631 142.253 32.5629 139.954 34.7601C137.652 36.9572 136.503 39.8018 136.503 43.2936C136.503 46.8144 137.63 49.6685 139.886 51.8489C142.141 54.0316 144.963 55.1217 148.354 55.1217C153.196 55.1217 156.708 52.9703 158.888 48.665L154.256 45.6857C153.588 47.0743 152.792 48.1043 151.87 48.7805Z" fill="#FF5400"/>
<path d="M175.003 31.4655C171.581 31.4655 168.98 32.8517 167.194 35.6192V22.8862H161.473V54.4936H167.194V43.1155C167.194 41.2505 167.717 39.7296 168.76 38.5552C169.805 37.3808 171.129 36.7936 172.733 36.7936C174.217 36.7936 175.344 37.2147 176.116 38.057C176.888 38.8993 177.276 40.0737 177.276 41.5802V54.4936H182.997V39.3686C182.997 36.9596 182.278 35.0416 180.84 33.6121C179.401 32.1803 177.457 31.4655 175.003 31.4655Z" fill="#FF5400"/>
<path d="M204.097 33.4967C202.418 32.1442 199.971 31.4656 196.762 31.4656C193.885 31.4656 191.586 32.1514 189.86 33.5208C188.137 34.8901 187.273 36.4928 187.273 38.329C187.273 38.9908 187.411 39.6237 187.682 40.2254L192.813 38.5095C192.752 38.329 192.723 38.1485 192.723 37.968C192.723 37.2461 193.079 36.6444 193.79 36.1631C194.502 35.6818 195.494 35.4412 196.765 35.4412C199.521 35.4412 200.898 36.5698 200.898 38.8248V39.6839L194.131 40.7211C191.772 41.0821 189.843 41.8738 188.345 43.0915C186.847 44.3116 186.097 45.989 186.097 48.126C186.097 50.2317 186.801 51.9259 188.207 53.2038C189.616 54.4841 191.438 55.1242 193.681 55.1242C197.132 55.1242 199.644 53.7236 201.217 50.9248V54.4889H206.621V39.5876C206.617 36.8851 205.774 34.8516 204.097 33.4967ZM200.896 44.018C200.896 46.0949 200.351 47.6976 199.262 48.8263C198.173 49.955 196.762 50.5205 195.037 50.5205C194.008 50.5205 193.193 50.2895 192.587 49.8202C191.98 49.3533 191.68 48.6819 191.68 47.8107C191.68 46.0347 192.934 44.9349 195.446 44.5114L200.896 43.6089V44.018Z" fill="#FF5400"/>
<path d="M131.121 33.4967C129.441 32.1442 126.995 31.4656 123.786 31.4656C120.908 31.4656 118.609 32.1514 116.884 33.5208C115.16 34.8901 114.297 36.4928 114.297 38.329C114.297 38.9908 114.434 39.6237 114.705 40.2254L119.836 38.5095C119.775 38.329 119.746 38.1485 119.746 37.968C119.746 37.2461 120.1 36.6444 120.814 36.1631C121.525 35.6818 122.517 35.4412 123.788 35.4412C126.542 35.4412 127.921 36.5698 127.921 38.8248V39.6839L121.155 40.7211C118.795 41.0821 116.867 41.8738 115.369 43.0915C113.871 44.3116 113.12 45.989 113.12 48.126C113.12 50.2317 113.825 51.9259 115.231 53.2038C116.639 54.4841 118.461 55.1242 120.705 55.1242C124.156 55.1242 126.668 53.7236 128.241 50.9248V54.4889H133.645V39.5876C133.64 36.8851 132.8 34.8516 131.121 33.4967ZM127.919 44.018C127.919 46.0949 127.374 47.6976 126.285 48.8263C125.196 49.955 123.786 50.5205 122.06 50.5205C121.031 50.5205 120.216 50.2895 119.611 49.8202C119.004 49.3533 118.703 48.6819 118.703 47.8107C118.703 46.0347 119.957 44.9349 122.471 44.5114L127.921 43.6089V44.018H127.919Z" fill="#FF5400"/>
<path d="M223.351 31.4655C220.203 31.4655 217.736 32.5942 215.95 34.8515V22.8862H210.229V54.4936H215.95V51.7381C217.615 53.9955 220.052 55.1241 223.261 55.1241C226.318 55.1241 228.893 54.0556 230.981 51.9186C233.07 49.7816 234.115 46.9058 234.115 43.2936C234.115 39.6525 233.101 36.7695 231.073 34.647C229.043 32.5268 226.468 31.4655 223.351 31.4655ZM226.507 47.9695C225.311 49.1896 223.789 49.7985 221.943 49.7985C220.096 49.7985 218.574 49.1896 217.378 47.9695C216.183 46.7494 215.585 45.1924 215.585 43.296C215.585 41.3997 216.183 39.8427 217.378 38.6225C218.574 37.4024 220.096 36.7936 221.943 36.7936C223.789 36.7936 225.309 37.4024 226.507 38.6225C227.702 39.8427 228.3 41.3997 228.3 43.296C228.3 45.1924 227.702 46.7494 226.507 47.9695Z" fill="#FF5400"/>
<path d="M242.922 22H237.201V53.6074H242.922V22Z" fill="#FF5400"/>
<path d="M268.848 42.6632C268.848 39.3831 267.819 36.695 265.76 34.6037C263.7 32.5124 261.067 31.4656 257.858 31.4656C254.528 31.4656 251.721 32.5654 249.437 34.7625C247.15 36.9597 246.007 39.8042 246.007 43.2961C246.007 46.7591 247.135 49.594 249.391 51.808C251.646 54.0196 254.378 55.1266 257.587 55.1266C262.522 55.1266 266.048 52.9439 268.168 48.5784L263.899 46.1406C262.536 48.8792 260.462 50.2486 257.679 50.2486C255.983 50.2486 254.577 49.7456 253.456 48.7373C252.336 47.7289 251.685 46.3668 251.503 44.651H268.848V42.6632ZM251.503 40.4973C251.927 39.1424 252.692 38.021 253.798 37.133C254.901 36.245 256.196 35.8021 257.679 35.8021C259.284 35.8021 260.6 36.2161 261.629 37.0439C262.657 37.8718 263.308 39.0245 263.582 40.4973H251.503Z" fill="#FF5400"/>
<path d="M77.8118 48.7805C76.8873 49.4568 75.6991 49.7961 74.247 49.7961C72.4901 49.7961 71.0526 49.2089 69.9345 48.0345C68.814 46.8601 68.255 45.2814 68.255 43.2936C68.255 41.3371 68.8237 39.7657 69.9587 38.5744C71.0937 37.3856 72.524 36.7912 74.2495 36.7912C76.8534 36.7912 78.7435 38.0715 79.9245 40.6296L84.6024 37.5589C83.8159 35.6337 82.5212 34.1344 80.7207 33.0659C78.9201 31.9974 76.7784 31.4631 74.2954 31.4631C70.9969 31.4631 68.1945 32.5629 65.8954 34.7601C63.594 36.9572 62.4445 39.8018 62.4445 43.2936C62.4445 46.8144 63.5722 49.6685 65.8277 51.8489C68.0832 54.0316 70.9049 55.1217 74.2954 55.1217C79.138 55.1217 82.6494 52.9703 84.8299 48.665L80.1979 45.6857C79.53 47.0743 78.7362 48.1043 77.8118 48.7805Z" fill="#FF5400"/>
<path d="M23.8568 47.0862L19.8153 32.0935H14.3677L10.3263 47.0862L6.69135 32.0935H1.15186L7.41978 54.4935H12.9593L17.0903 39.0917L21.2237 54.4935H26.7632L33.0989 32.1079C33.0989 32.1007 33.1013 32.0983 33.1062 32.0935H27.9999L23.8568 47.0862Z" fill="#FF5400"/>
<path d="M45.492 10.726H39.9695C39.9138 11.0389 39.8848 11.3614 39.8848 11.6863C39.8848 14.8316 42.4476 17.3801 45.6082 17.3801C48.7712 17.3801 51.334 14.8316 51.334 11.6863C51.334 10.0161 50.6104 8.51925 49.4609 7.47241L45.492 10.726Z" fill="white"/>
<path d="M33.0942 9.86682H33.1014H37.6778V9.49621L39.6816 7.24851H40.2672L38.1448 9.63338V9.86682V10.7259V13.0795H38.5054V10.7259V9.86682H40.1873H44.8919L48.597 6.82977L53.5896 2.73867C53.6815 2.66406 53.7445 2.57502 53.7808 2.47876C53.9284 2.09612 53.6598 1.61963 53.1854 1.61963H41.3877L32.6925 8.74537C32.2302 9.1232 32.4989 9.86682 33.0942 9.86682Z" fill="white"/>
<path d="M66.2561 15.1899L57.1035 22.063C53.9889 20.1907 50.4556 19.257 46.5013 19.257C41.0973 19.257 35.853 21.3627 32.1891 25.165L35.9426 27.9831C36.2015 27.728 36.4774 27.4873 36.7606 27.2635C39.6477 24.9869 43.3552 24.135 46.9828 24.1615C50.3467 24.1904 53.6307 25.0519 56.363 27.0036C56.5808 27.1576 56.7913 27.3189 57.0018 27.4849L57.5706 27.9662L69.2836 19.18L66.2561 15.1899Z" fill="white"/>
<path d="M47.2102 28.7917C43.5027 28.7917 40.3784 30.0143 37.835 32.4593C35.2915 34.9043 34.0186 38.0713 34.0186 41.9579C34.0186 45.8107 35.2721 48.9681 37.7841 51.43C40.2937 53.8919 43.3357 55.124 46.9053 55.124C52.3964 55.124 56.3217 52.6958 58.6813 47.837L53.9307 45.1225C52.4158 48.1716 50.107 49.6949 47.007 49.6949C45.1193 49.6949 43.5535 49.1342 42.3072 48.0103C41.0609 46.8889 40.3373 45.3728 40.134 43.462H59.4387V41.2504C59.4387 37.5997 58.2941 34.6083 56.0023 32.2812C53.7129 29.9565 50.7798 28.7917 47.2102 28.7917ZM40.134 38.8414C40.6059 37.3349 41.4554 36.0859 42.6872 35.0969C43.9166 34.1102 45.3565 33.6144 47.007 33.6144C48.7929 33.6144 50.2571 34.0765 51.4042 34.9958C52.5489 35.9175 53.2749 37.2002 53.5774 38.8414H40.134Z" fill="#FF5400"/>
</svg>
